<?xml version="1.0" encoding="UTF-8" standalone="no"?>
<!-- Generator: Adobe Illustrator 16.0.0, SVG Export Plug-In . SVG Version: 6.00 Build 0)  -->

<svg
   version="1.1"
   id="Ebene_1"
   x="0px"
   y="0px"
   width="64px"
   height="64px"
   viewBox="0 0 64 64"
   enable-background="new 0 0 64 64"
   xml:space="preserve"
   sodipodi:docname="graph_rising.svg"
   inkscape:version="1.1.2 (0a00cf5339, 2022-02-04, custom)"
   xmlns:inkscape="http://www.inkscape.org/namespaces/inkscape"
   xmlns:sodipodi="http://sodipodi.sourceforge.net/DTD/sodipodi-0.dtd"
   xmlns="http://www.w3.org/2000/svg"
   xmlns:svg="http://www.w3.org/2000/svg"><defs
   id="defs11"><filter
     inkscape:collect="always"
     style="color-interpolation-filters:sRGB"
     id="filter895"
     x="-0.01027625"
     y="-0.01027625"
     width="1.0205525"
     height="1.0205525"><feGaussianBlur
       inkscape:collect="always"
       stdDeviation="0.0032"
       id="feGaussianBlur897" /></filter></defs><sodipodi:namedview
   id="namedview9"
   pagecolor="#ffffff"
   bordercolor="#666666"
   borderopacity="1.0"
   inkscape:pageshadow="2"
   inkscape:pageopacity="0.0"
   inkscape:pagecheckerboard="0"
   showgrid="false"
   showguides="false"
   inkscape:snap-text-baseline="false"
   inkscape:zoom="9.515625"
   inkscape:cx="32.10509"
   inkscape:cy="32.052545"
   inkscape:window-width="1600"
   inkscape:window-height="837"
   inkscape:window-x="-8"
   inkscape:window-y="-8"
   inkscape:window-maximized="1"
   inkscape:current-layer="Ebene_1"
   inkscape:snap-center="false" />
<g
   id="g6"
   style="stroke-width:1.3;stroke-miterlimit:4;stroke-dasharray:none;fill:#000000;fill-opacity:1;paint-order:normal;filter:url(#filter895);stroke:#000000;stroke-opacity:1">
	<path
   d="M 62,60 H 4 v -8 h 4 c 1.104,0 2,-0.896 2,-2 0,-1.104 -0.896,-2 -2,-2 H 4 V 42 C 5.104,42 6,41.104 6,40 6,38.896 5.104,38 4,38 v -6 h 4 c 1.104,0 2,-0.896 2,-2 0,-1.104 -0.896,-2 -2,-2 H 4 V 22 C 5.104,22 6,21.104 6,20 6,18.896 5.104,18 4,18 v -6 h 4 c 1.104,0 2,-0.896 2,-2 C 10,8.896 9.104,8 8,8 H 4 V 2 C 4,0.896 3.104,0 2,0 0.896,0 0,0.896 0,2 v 58 c 0,2.206 1.794,4 4,4 h 58 c 1.104,0 2,-0.896 2,-2 0,-1.104 -0.896,-2 -2,-2 z"
   id="path2"
   style="stroke-width:1.3;stroke-miterlimit:4;stroke-dasharray:none;fill:#000000;fill-opacity:1;paint-order:normal;stroke:#000000;stroke-opacity:1" />
	<path
   d="m 56,34 c 1.104,0 2,-0.896 2,-2 V 22 c 0,-0.131 -0.014,-0.263 -0.039,-0.392 -0.013,-0.06 -0.035,-0.115 -0.052,-0.173 -0.02,-0.067 -0.035,-0.135 -0.062,-0.2 -0.029,-0.068 -0.068,-0.131 -0.104,-0.195 -0.027,-0.05 -0.049,-0.102 -0.08,-0.148 -0.147,-0.22 -0.336,-0.408 -0.556,-0.556 C 57.06,20.305 57.008,20.283 56.959,20.256 56.895,20.221 56.832,20.182 56.764,20.152 56.699,20.126 56.631,20.11 56.564,20.09 56.506,20.073 56.451,20.051 56.391,20.038 56.263,20.014 56.131,20 56,20 H 46 c -1.104,0 -2,0.896 -2,2 0,1.104 0.896,2 2,2 h 5.172 L 32,43.172 27.414,38.586 c -0.781,-0.781 -2.047,-0.781 -2.828,0 l -10,10 c -0.781,0.781 -0.781,2.047 0,2.828 C 14.977,51.805 15.488,52 16,52 c 0.512,0 1.023,-0.195 1.414,-0.586 L 26,42.828 l 4.586,4.586 c 0.781,0.781 2.047,0.781 2.828,0 L 54,26.828 V 32 c 0,1.104 0.896,2 2,2 z"
   id="path4"
   style="stroke-width:1.3;stroke-miterlimit:4;stroke-dasharray:none;fill:#000000;fill-opacity:1;paint-order:normal;stroke:#000000;stroke-opacity:1" />
</g>
</svg>
