<?xml version="1.0" encoding="UTF-8" standalone="no"?>
<svg
   viewBox="0 0 512 512"
   version="1.1"
   id="svg4"
   sodipodi:docname="search-dollar.svg"
   inkscape:version="1.1.2 (0a00cf5339, 2022-02-04, custom)"
   xmlns:inkscape="http://www.inkscape.org/namespaces/inkscape"
   xmlns:sodipodi="http://sodipodi.sourceforge.net/DTD/sodipodi-0.dtd"
   xmlns="http://www.w3.org/2000/svg"
   xmlns:svg="http://www.w3.org/2000/svg">
  <defs
     id="defs8" />
  <sodipodi:namedview
     id="namedview6"
     pagecolor="#ffffff"
     bordercolor="#666666"
     borderopacity="1.0"
     inkscape:pageshadow="2"
     inkscape:pageopacity="0.0"
     inkscape:pagecheckerboard="0"
     showgrid="false"
     inkscape:zoom="1.1894531"
     inkscape:cx="256"
     inkscape:cy="256.42036"
     inkscape:window-width="1600"
     inkscape:window-height="837"
     inkscape:window-x="-8"
     inkscape:window-y="-8"
     inkscape:window-maximized="1"
     inkscape:current-layer="svg4" />
  <!-- Font Awesome Free 5.15.1 by @fontawesome - https://fontawesome.com License - https://fontawesome.com/license/free (Icons: CC BY 4.0, Fonts: SIL OFL 1.1, Code: MIT License) -->
  <path
     d="M505.04 442.66l-99.71-99.69c-4.5-4.5-10.6-7-17-7h-16.3c27.6-35.3 44-79.69 44-127.99C416.03 93.09 322.92 0 208.02 0S0 93.09 0 207.98s93.11 207.98 208.02 207.98c48.3 0 92.71-16.4 128.01-44v16.3c0 6.4 2.5 12.5 7 17l99.71 99.69c9.4 9.4 24.6 9.4 33.9 0l28.3-28.3c9.4-9.4 9.4-24.59.1-33.99zm-297.02-90.7c-79.54 0-144-64.34-144-143.98 0-79.53 64.35-143.98 144-143.98 79.54 0 144 64.34 144 143.98 0 79.53-64.35 143.98-144 143.98zm27.11-152.54l-45.01-13.5c-5.16-1.55-8.77-6.78-8.77-12.73 0-7.27 5.3-13.19 11.8-13.19h28.11c4.56 0 8.96 1.29 12.82 3.72 3.24 2.03 7.36 1.91 10.13-.73l11.75-11.21c3.53-3.37 3.33-9.21-.57-12.14-9.1-6.83-20.08-10.77-31.37-11.35V112c0-4.42-3.58-8-8-8h-16c-4.42 0-8 3.58-8 8v16.12c-23.63.63-42.68 20.55-42.68 45.07 0 19.97 12.99 37.81 31.58 43.39l45.01 13.5c5.16 1.55 8.77 6.78 8.77 12.73 0 7.27-5.3 13.19-11.8 13.19h-28.1c-4.56 0-8.96-1.29-12.82-3.72-3.24-2.03-7.36-1.91-10.13.73l-11.75 11.21c-3.53 3.37-3.33 9.21.57 12.14 9.1 6.83 20.08 10.77 31.37 11.35V304c0 4.42 3.58 8 8 8h16c4.42 0 8-3.58 8-8v-16.12c23.63-.63 42.68-20.54 42.68-45.07 0-19.97-12.99-37.81-31.59-43.39z"
     id="path2"
     style="fill:#5590cc;fill-opacity:1" />
  <path
     style="fill:#f79539;fill-opacity:1;stroke:#f79539;stroke-width:0;stroke-opacity:0.63137257"
     d="m 197.56979,311.14814 c -4.22451,-1.81669 -5.0203,-3.90494 -5.34127,-14.01614 l -0.30356,-9.56251 -3.06264,-0.48583 c -9.90108,-1.57059 -17.35473,-4.25152 -24.29907,-8.73986 -5.09732,-3.29456 -6.88981,-6.09762 -6.28686,-9.83123 0.15808,-0.97883 3.81083,-5.23499 8.11722,-9.45812 8.93177,-8.75907 9.65843,-8.9865 17.14614,-5.36644 4.7113,2.27776 5.05588,2.31561 23.27798,2.55662 16.83615,0.22269 18.75995,0.10166 21.43843,-1.3486 8.10499,-4.38846 8.98065,-17.66687 1.52539,-23.13078 -1.24182,-0.91012 -13.81569,-5.14369 -27.94193,-9.40794 -28.5001,-8.60325 -32.24839,-10.33589 -39.69404,-18.34856 -16.79453,-18.0735 -16.18566,-45.59322 1.39141,-62.88891 6.67604,-6.56917 13.78515,-10.29656 22.48292,-11.78806 l 5.94832,-1.02003 0.27861,-9.57978 0.27861,-9.57978 2.74561,-2.4513 c 2.70715,-2.41696 2.88586,-2.4513 12.75652,-2.4513 9.54338,0 10.1317,0.10165 12.59757,2.17654 l 2.58667,2.17654 v 9.81187 9.81187 l 7.77669,1.43125 c 8.5732,1.57785 19.56733,6.44274 24.07425,10.65284 2.04799,1.91311 2.61868,3.14676 2.61868,5.66078 0,2.93068 -0.65644,3.8617 -7.43344,10.54267 -4.0884,4.03046 -8.45436,7.58435 -9.70214,7.89752 -1.61968,0.40651 -3.76218,-0.12049 -7.48938,-1.84222 -5.19128,-2.39803 -5.32734,-2.41304 -24.15958,-2.66439 -18.61691,-0.24849 -18.98854,-0.21962 -21.85878,1.6982 -7.40513,4.94788 -7.85775,17.52061 -0.81627,22.67417 1.15699,0.84678 13.42688,4.95457 27.26643,9.12841 13.83955,4.17383 27.08012,8.61023 29.42348,9.85865 2.34336,1.24843 6.76345,4.73859 9.82244,7.75592 8.78163,8.66207 13.36726,19.4867 13.34204,31.49469 -0.0264,12.56291 -4.43794,23.39992 -13.01889,31.98087 -6.28462,6.28461 -13.47706,10.15193 -22.47351,12.08381 l -6.95166,1.49279 -0.42036,9.79642 c -0.57459,13.39067 -0.73796,13.55065 -14.10314,13.81066 -5.4216,0.10548 -10.6141,-0.13361 -11.53889,-0.53131 z"
     id="path970" />
  <path
     style="fill:#f79539;fill-opacity:1;stroke:#f79539;stroke-width:0;stroke-opacity:0.631373"
     d="m 195.81437,309.11515 c -2.10274,-1.80871 -2.32201,-2.6274 -2.98356,-11.13957 -0.83087,-10.69096 -0.99446,-11.28921 -3.08702,-11.28921 -3.39141,0 -14.74624,-3.43715 -20.01137,-6.05751 -6.05106,-3.01151 -11.25623,-8.04174 -11.25623,-10.87793 0,-1.14777 2.84434,-4.64192 7.8683,-9.66588 8.85873,-8.85873 10.3609,-9.39452 16.75633,-5.97668 3.39602,1.81491 4.38069,1.89163 24.27904,1.89163 h 20.73947 l 2.27857,-2.10181 c 1.25322,-1.15599 2.7973,-3.31921 3.43131,-4.80715 2.46676,-5.78925 0.76125,-14.63653 -3.3335,-17.29236 -1.86737,-1.21118 -15.72053,-5.89088 -37.97026,-12.82662 -16.30537,-5.08276 -22.08164,-7.75291 -27.26978,-12.60581 -15.07545,-14.10133 -18.94876,-34.3026 -10.04991,-52.41544 6.26437,-12.75058 16.98819,-21.20091 30.46759,-24.00833 3.1673,-0.65968 5.93441,-1.37509 6.14913,-1.5898 0.21471,-0.21472 0.61128,-4.57742 0.88125,-9.69488 0.4379,-8.30086 0.70124,-9.50214 2.44141,-11.13693 4.22951,-3.97342 20.94364,-4.07112 25.60402,-0.14967 2.45813,2.06838 2.46266,2.08985 2.46266,11.66577 0,5.27646 0.16443,9.59357 0.3654,9.59357 0.20097,0 3.07437,0.56985 6.38533,1.26633 12.24274,2.57534 25.12841,9.20869 26.71181,13.75083 0.56851,1.63084 0.50028,3.08225 -0.22611,4.80985 -1.32992,3.16295 -13.41428,14.48872 -16.20706,15.18966 -1.38463,0.34752 -3.61485,-0.15284 -6.42259,-1.44095 -4.06358,-1.86427 -5.42341,-1.99 -24.59883,-2.27455 l -20.29747,-0.3012 -2.92898,2.57168 c -3.9213,3.44295 -5.09458,6.58873 -4.66621,12.51094 0.62344,8.61898 1.54253,9.3127 20.24937,15.28404 36.17312,11.5467 41.15472,13.3942 45.81886,16.99255 7.73283,5.96583 13.13265,13.44218 16.09963,22.29082 2.19615,6.54969 2.39331,18.76955 0.41171,25.51597 -4.75279,16.18094 -17.33039,27.70127 -34.38643,31.49587 l -6.30843,1.4035 -0.0432,4.3294 c -0.0237,2.38117 -0.3327,6.93693 -0.68656,10.12392 -0.93021,8.3777 -1.80583,8.91812 -14.44953,8.91812 -9.19647,0 -10.12024,-0.14759 -12.21819,-1.95217 z"
     id="path1527" />
</svg>
